<svg class="diagram-root" style="background: #f5f6f6" xmlns="http://www.w3.org/2000/svg" xmlns:xlink="http://www.w3.org/1999/xlink"><style>.diagram-root { font-family: "Helvetica Neue", sans-serif; font-size: 12px; } .t { overflow: visible; } .t-bg { y: 40; fill: #fff;   } .th { fill: #005aa0;   } .tht { fill: #fff; font-size: 14px;  } .tf { fill: #323c46; overflow: visible; } .tf.pk { fill: #005aa0; font-weight: bold; } .tf.fk { font-weight: bold; } .ty { fill: #adb1b5; font-weight: normal; text-anchor: end; } .r { fill: transparent; stroke: #c3c3c3; stroke-width: 1; } .l { stroke: 1; } .i { fill: #c2c7ce; stroke: #c2c7ce; } .i.ix { fill: #afb3b6; stroke: #000; } .fa { fill: transparent; overflow: visible; } .fa .bg.hover { fill: #f7f7f7; } .c { cy: 12; r: 4; stroke: #d2d2dc; fill: #d2d2dc; } .hr { fill: transparent; stroke: #323c46; stroke-opacity: 0.035; stroke-width: 13; } .dc { stroke: #fa5a3c; fill: #fa5a3c; } .x { stroke: white; stroke-width: 1; } .hl .th { fill: #1b9bff; } .hl .tht {  } .fhl .bg { fill: #e7f4ff; } .fhls .bg {  } .r.hl { stroke: #1b9bff; } .dim { opacity: 0.25; }</style><g class="drawing-wrapper" transform="translate(-235, -234) scale(1,1)"><g class="rs"><path d="M 436.83 402 m -1, 0 a 1,1 0 1,0 2,0 a 1,1 0 1,0 -2,0 M 436.83 402 m -0.5, 0 a 0.5,0.5 0 1,0 1,0 a 0.5,0.5 0 1,0 -1,0  M436.83 402 L436.83 402 448.83 402 M 436.83 408 m -1, 0 a 1,1 0 1,0 2,0 a 1,1 0 1,0 -2,0 M 436.83 408 m -0.5, 0 a 0.5,0.5 0 1,0 1,0 a 0.5,0.5 0 1,0 -1,0  M436.83 408 L436.83 408 443.83 402 436.83 396 M 436.83 396 m -1, 0 a 1,1 0 1,0 2,0 a 1,1 0 1,0 -2,0 M 436.83 396 m -0.5, 0 a 0.5,0.5 0 1,0 1,0 a 0.5,0.5 0 1,0 -1,0  M448.83 402 Q 473.63 402, 498.42 361.5 T 548 321 M 560 321 m -1, 0 a 1,1 0 1,0 2,0 a 1,1 0 1,0 -2,0 M 560 321 m -0.5, 0 a 0.5,0.5 0 1,0 1,0 a 0.5,0.5 0 1,0 -1,0  M560 321 L560 321 548 321 M554 327 L554 327 554 315" id="h1374513870" class="r"></path><path d="M 915 399 m -1, 0 a 1,1 0 1,0 2,0 a 1,1 0 1,0 -2,0 M 915 399 m -0.5, 0 a 0.5,0.5 0 1,0 1,0 a 0.5,0.5 0 1,0 -1,0  M915 399 L915 399 903 399 M 915 405 m -1, 0 a 1,1 0 1,0 2,0 a 1,1 0 1,0 -2,0 M 915 405 m -0.5, 0 a 0.5,0.5 0 1,0 1,0 a 0.5,0.5 0 1,0 -1,0  M915 405 L915 405 908 399 915 393 M 915 393 m -1, 0 a 1,1 0 1,0 2,0 a 1,1 0 1,0 -2,0 M 915 393 m -0.5, 0 a 0.5,0.5 0 1,0 1,0 a 0.5,0.5 0 1,0 -1,0  M903 399 Q 871.05 399, 839.09 360 T 775.17 321 M 763.17 321 m -1, 0 a 1,1 0 1,0 2,0 a 1,1 0 1,0 -2,0 M 763.17 321 m -0.5, 0 a 0.5,0.5 0 1,0 1,0 a 0.5,0.5 0 1,0 -1,0  M763.17 321 L763.17 321 775.17 321 M769.17 327 L769.17 327 769.17 315" id="h2184327848" class="r"></path></g><g class="hrs"></g><g class="ts"><svg width="203.17" height="300" x="560" y="264" id="h3409972826" class="t"><rect height="40" width="203.17" class="th"></rect><text x="13" y="25" class="tht">Stations</text><rect height="260" width="203.17" class="t-bg" y="40"></rect><text x="13" y="61" class="tf pk">Station_ID<tspan x="190.17" class="ty">INT</tspan></text><path d="M7,14A2,2 0 0,1 5,12A2,2 0 0,1 7,10A2,2 0 0,1 9,12A2,2 0 0,1 7,14M12.65,10C11.83,7.67 9.61,6 7, 6A6, 6 0 0, 0 1, 12A6, 6 0 0, 0 7, 18C9.61, 18 11.83, 16.33 12.65, 14H17V18H21V14H23V10H12.65Z" class="i pk" transform="translate(150.839921875, 48) scale(0.65)"></path><text x="13" y="86" class="tf">Station_Name<tspan x="190.17" class="ty">VARCHAR</tspan></text><text x="13" y="111" class="tf">Station_Type<tspan x="190.17" class="ty">VARCHAR</tspan></text><text x="13" y="136" class="tf">Description<tspan x="190.17" class="ty">VARCHAR</tspan></text><text x="13" y="161" class="tf">Active<tspan x="190.17" class="ty">BOOLEAN</tspan></text><text x="13" y="186" class="tf">Measuring_Device<tspan x="190.17" class="ty">VARCHAR</tspan></text><text x="13" y="211" class="tf">Record_Type<tspan x="190.17" class="ty">VARCHAR</tspan></text><text x="13" y="236" class="tf">Record_Rating<tspan x="190.17" class="ty">VARCHAR</tspan></text><text x="13" y="261" class="tf">Start_Period<tspan x="190.17" class="ty">INT</tspan></text><text x="13" y="286" class="tf">End_Period<tspan x="190.17" class="ty">INT</tspan></text></svg><svg width="179.83" height="150" x="915" y="342" id="h3470800496" class="t"><rect height="40" width="179.83" class="th"></rect><text x="13" y="25" class="tht">Locations</text><rect height="110" width="179.83" class="t-bg" y="40"></rect><text x="13" y="61" class="tf fk">Station_ID<tspan x="166.83" class="ty">INT</tspan></text><text x="13" y="86" class="tf">Station_Name<tspan x="166.83" class="ty">VARCHAR</tspan></text><text x="13" y="111" class="tf">Latitude<tspan x="166.83" class="ty">FLOAT</tspan></text><text x="13" y="136" class="tf">Longitude<tspan x="166.83" class="ty">FLOAT</tspan></text></svg><svg width="179.83" height="175" x="257" y="320" id="h352856683" class="t"><rect height="40" width="179.83" class="th"></rect><text x="13" y="25" class="tht">Discharge</text><rect height="135" width="179.83" class="t-bg" y="40"></rect><text x="13" y="61" class="tf pk">Record_ID<tspan x="166.83" class="ty">INT</tspan></text><path d="M7,14A2,2 0 0,1 5,12A2,2 0 0,1 7,10A2,2 0 0,1 9,12A2,2 0 0,1 7,14M12.65,10C11.83,7.67 9.61,6 7, 6A6, 6 0 0, 0 1, 12A6, 6 0 0, 0 7, 18C9.61, 18 11.83, 16.33 12.65, 14H17V18H21V14H23V10H12.65Z" class="i pk" transform="translate(127.49992187500001, 48) scale(0.65)"></path><text x="13" y="86" class="tf fk">Station_ID<tspan x="166.83" class="ty">INT</tspan></text><text x="13" y="111" class="tf">Station_Name<tspan x="166.83" class="ty">VARCHAR</tspan></text><text x="13" y="136" class="tf">Date<tspan x="166.83" class="ty">DATE</tspan></text><text x="13" y="161" class="tf">Flow<tspan x="166.83" class="ty">FLOAT</tspan></text></svg></g></g><text class="qdbd-link" x="10" y="20">www.quickdatabasediagrams.com</text></svg>