<svg class="diagram-root" style="background: #f5f6f6" xmlns="http://www.w3.org/2000/svg" xmlns:xlink="http://www.w3.org/1999/xlink"><style>.diagram-root { font-family: "Helvetica Neue", sans-serif; font-size: 12px; } .t { overflow: visible; } .t-bg { y: 40; fill: #fff;   } .th { fill: #005aa0;   } .tht { fill: #fff; font-size: 14px;  } .tf { fill: #323c46; overflow: visible; } .tf.pk { fill: #005aa0; font-weight: bold; } .tf.fk { font-weight: bold; } .ty { fill: #adb1b5; font-weight: normal; text-anchor: end; } .r { fill: transparent; stroke: #c3c3c3; stroke-width: 1; } .l { stroke: 1; } .i { fill: #c2c7ce; stroke: #c2c7ce; } .i.ix { fill: #afb3b6; stroke: #000; } .fa { fill: transparent; overflow: visible; } .fa .bg.hover { fill: #f7f7f7; } .c { cy: 12; r: 4; stroke: #d2d2dc; fill: #d2d2dc; } .hr { fill: transparent; stroke: #323c46; stroke-opacity: 0.035; stroke-width: 13; } .dc { stroke: #fa5a3c; fill: #fa5a3c; } .x { stroke: white; stroke-width: 1; } .hl .th { fill: #1b9bff; } .hl .tht {  } .fhl .bg { fill: #e7f4ff; } .fhls .bg {  } .r.hl { stroke: #1b9bff; } .dim { opacity: 0.25; }</style><g class="drawing-wrapper" transform="translate(-191, 6) scale(1,1)"><g class="rs"><path d="M 226 469 m -1, 0 a 1,1 0 1,0 2,0 a 1,1 0 1,0 -2,0 M 226 469 m -0.5, 0 a 0.5,0.5 0 1,0 1,0 a 0.5,0.5 0 1,0 -1,0  M226 469 L226 469 214 469 M 226 475 m -1, 0 a 1,1 0 1,0 2,0 a 1,1 0 1,0 -2,0 M 226 475 m -0.5, 0 a 0.5,0.5 0 1,0 1,0 a 0.5,0.5 0 1,0 -1,0  M226 475 L226 475 219 469 226 463 M 226 463 m -1, 0 a 1,1 0 1,0 2,0 a 1,1 0 1,0 -2,0 M 226 463 m -0.5, 0 a 0.5,0.5 0 1,0 1,0 a 0.5,0.5 0 1,0 -1,0  M214 469 C 143.2 469, 151 81, 201 81 M 213 81 m -1, 0 a 1,1 0 1,0 2,0 a 1,1 0 1,0 -2,0 M 213 81 m -0.5, 0 a 0.5,0.5 0 1,0 1,0 a 0.5,0.5 0 1,0 -1,0  M213 81 L213 81 201 81 M207 87 L207 87 207 75" id="h1419081249" class="r"></path><path d="M 639.84 371 m -1, 0 a 1,1 0 1,0 2,0 a 1,1 0 1,0 -2,0 M 639.84 371 m -0.5, 0 a 0.5,0.5 0 1,0 1,0 a 0.5,0.5 0 1,0 -1,0  M639.84 371 L639.84 371 651.84 371 M 639.84 377 m -1, 0 a 1,1 0 1,0 2,0 a 1,1 0 1,0 -2,0 M 639.84 377 m -0.5, 0 a 0.5,0.5 0 1,0 1,0 a 0.5,0.5 0 1,0 -1,0  M639.84 377 L639.84 377 646.84 371 639.84 365 M 639.84 365 m -1, 0 a 1,1 0 1,0 2,0 a 1,1 0 1,0 -2,0 M 639.84 365 m -0.5, 0 a 0.5,0.5 0 1,0 1,0 a 0.5,0.5 0 1,0 -1,0  M651.84 371 C 701.84 371, 837.2360000000001 81, 426.18 81 M 414.18 81 m -1, 0 a 1,1 0 1,0 2,0 a 1,1 0 1,0 -2,0 M 414.18 81 m -0.5, 0 a 0.5,0.5 0 1,0 1,0 a 0.5,0.5 0 1,0 -1,0  M414.18 81 L414.18 81 426.18 81 M420.18 87 L420.18 87 420.18 75" id="h2713145477" class="r"></path></g><g class="hrs"></g><g class="ts"><svg width="140.03" height="150" x="226" y="387" id="h352856683" class="t"><rect height="40" width="140.03" class="th"></rect><text x="13" y="25" class="tht">Discharge</text><rect height="110" width="140.03" class="t-bg" y="40"></rect><text x="13" y="61" class="tf pk">Record_id<tspan x="127.03" class="ty">INT</tspan></text><path d="M7,14A2,2 0 0,1 5,12A2,2 0 0,1 7,10A2,2 0 0,1 9,12A2,2 0 0,1 7,14M12.65,10C11.83,7.67 9.61,6 7, 6A6, 6 0 0, 0 1, 12A6, 6 0 0, 0 7, 18C9.61, 18 11.83, 16.33 12.65, 14H17V18H21V14H23V10H12.65Z" class="i pk" transform="translate(87.699921875, 48) scale(0.65)"></path><text x="13" y="86" class="tf fk">Station_id<tspan x="127.03" class="ty">INT</tspan></text><text x="13" y="111" class="tf">Date<tspan x="127.03" class="ty">DATE</tspan></text><text x="13" y="136" class="tf">Flow<tspan x="127.03" class="ty">FLOAT</tspan></text></svg><svg width="201.18" height="325" x="213" y="24" id="h3409972826" class="t"><rect height="40" width="201.18" class="th"></rect><text x="13" y="25" class="tht">Stations</text><rect height="285" width="201.18" class="t-bg" y="40"></rect><text x="13" y="61" class="tf pk">Station_id<tspan x="188.18" class="ty">INT</tspan></text><path d="M7,14A2,2 0 0,1 5,12A2,2 0 0,1 7,10A2,2 0 0,1 9,12A2,2 0 0,1 7,14M12.65,10C11.83,7.67 9.61,6 7, 6A6, 6 0 0, 0 1, 12A6, 6 0 0, 0 7, 18C9.61, 18 11.83, 16.33 12.65, 14H17V18H21V14H23V10H12.65Z" class="i pk" transform="translate(148.849921875, 48) scale(0.65)"></path><text x="13" y="86" class="tf">System_name<tspan x="188.18" class="ty">VARCHAR</tspan></text><text x="13" y="111" class="tf">Station_name<tspan x="188.18" class="ty">VARCHAR</tspan></text><text x="13" y="136" class="tf">Discription<tspan x="188.18" class="ty">VARCHAR</tspan></text><text x="13" y="161" class="tf">Station_type<tspan x="188.18" class="ty">VARCHAR</tspan></text><text x="13" y="186" class="tf">Status<tspan x="188.18" class="ty">BOOLEAN</tspan></text><text x="13" y="211" class="tf">Measuring_device<tspan x="188.18" class="ty">VARCHAR</tspan></text><text x="13" y="236" class="tf">Record_type<tspan x="188.18" class="ty">VARCHAR</tspan></text><text x="13" y="261" class="tf">Record_rating<tspan x="188.18" class="ty">VARCHAR</tspan></text><text x="13" y="286" class="tf">Start_period<tspan x="188.18" class="ty">INT</tspan></text><text x="13" y="311" class="tf">End_period<tspan x="188.18" class="ty">INT</tspan></text></svg><svg width="177.84" height="150" x="462" y="314" id="h3470800496" class="t"><rect height="40" width="177.84" class="th"></rect><text x="13" y="25" class="tht">Locations</text><rect height="110" width="177.84" class="t-bg" y="40"></rect><text x="13" y="61" class="tf fk">Station_id<tspan x="164.84" class="ty">INT</tspan></text><text x="13" y="86" class="tf">Station_name<tspan x="164.84" class="ty">VARCHAR</tspan></text><text x="13" y="111" class="tf">Latitude<tspan x="164.84" class="ty">FLOAT</tspan></text><text x="13" y="136" class="tf">Longitude<tspan x="164.84" class="ty">FLOAT</tspan></text></svg></g></g><text class="qdbd-link" x="10" y="20">www.quickdatabasediagrams.com</text></svg>